<?xml version="1.0" encoding="UTF-8" standalone="no"?>
<!DOCTYPE svg PUBLIC "-//W3C//DTD SVG 1.1//EN" "http://www.w3.org/Graphics/SVG/1.1/DTD/svg11.dtd">
<svg width="100%" height="100%" viewBox="0 0 1440 550" version="1.1" xmlns="http://www.w3.org/2000/svg" xmlns:xlink="http://www.w3.org/1999/xlink" xml:space="preserve" xmlns:serif="http://www.serif.com/" style="fill-rule:evenodd;clip-rule:evenodd;stroke-linejoin:round;stroke-miterlimit:10;">
    <g transform="matrix(1,0,0,1,0,219)">
        <g transform="matrix(1,0,0,1,436.081,216.586)">
            <g transform="matrix(1,0,0,1,-65.5,-53)">
                <path d="M30.531,94.423L34.542,86.079C34.644,85.867 34.817,85.698 35.03,85.601L95.722,58.067C96.017,57.933 96.358,57.951 96.638,58.114L126.959,75.795C127.73,76.245 127.571,77.402 126.708,77.627L49.934,97.634C49.819,97.664 49.701,97.674 49.583,97.662L31.333,95.852C30.642,95.783 30.23,95.049 30.531,94.423Z" style="fill:rgb(23,43,77);fill-rule:nonzero;"/>
                <g>
                    <path d="M34.165,29.843L17.145,75.929L36.986,89.127L94.573,61.776L112.237,38.004L69.731,24.713L34.165,29.843Z" style="fill:white;fill-rule:nonzero;stroke:rgb(54,179,126);stroke-width:1.63px;"/>
                    <path d="M54.19,48.382L56.083,52.369L94.573,61.776L97.205,58.173L112.237,38.004L69.731,24.713L54.19,48.382Z" style="fill:rgb(197,233,218);fill-rule:nonzero;stroke:rgb(54,179,126);stroke-width:1.63px;"/>
                    <path d="M69.732,24.714L56.342,46.817L17.146,75.93" style="fill:white;fill-rule:nonzero;"/>
                    <path d="M69.732,24.714L56.342,46.817L17.146,75.93" style="fill:none;fill-rule:nonzero;stroke:rgb(54,179,126);stroke-width:1.63px;"/>
                    <path d="M49.217,52.011L51.041,41.372L61.185,38.726L56.083,52.369L49.217,52.011Z" style="fill:rgb(23,43,77);fill-rule:nonzero;stroke:rgb(54,179,126);stroke-width:1.63px;"/>
                    <path d="M94.573,61.776L56.083,52.369" style="fill:none;fill-rule:nonzero;stroke:rgb(54,179,126);stroke-width:1.63px;"/>
                    <path d="M81.258,58.509L87.947,53.16L87.224,60.019L82.104,63.718L81.258,58.509Z" style="fill:white;fill-rule:nonzero;stroke:rgb(54,179,126);stroke-width:1.63px;"/>
                    <path d="M87.947,53.16L86.298,29.875" style="fill:none;fill-rule:nonzero;stroke:rgb(54,179,126);stroke-width:1.63px;"/>
                    <g>
                        <path d="M50.141,63.535L54.534,54.209L64.322,53.859L68.434,44.893L59.103,45.253L63.4,36.199L53.797,36.462L49.5,45.515L44.835,54.744L34.775,54.998L30.012,64.499L19.583,64.927L14.355,74.876L24.968,74.36L35.31,73.747L40.169,63.973L50.141,63.535Z" style="fill:rgb(54,179,126);fill-rule:nonzero;"/>
                        <path d="M59.929,63.184L69.628,62.649L73.653,53.499L64.322,53.858L59.929,63.184Z" style="fill:rgb(54,179,126);fill-rule:nonzero;"/>
                        <path d="M45.466,73.22L55.535,72.51L59.928,63.184L50.141,63.534L45.466,73.22Z" style="fill:rgb(197,233,218);fill-rule:nonzero;"/>
                        <path d="M50.86,82.196L60.744,81.573L65.235,71.975L55.535,72.51L50.86,82.196Z" style="fill:rgb(54,179,126);fill-rule:nonzero;"/>
                        <path d="M40.791,82.907L45.466,73.221L35.309,73.747L30.45,83.52L25.397,93.838L35.835,92.952L46.176,92.339L50.86,82.196L40.791,82.907Z" style="fill:rgb(54,179,126);fill-rule:nonzero;"/>
                        <path d="M72.633,36.112L68.434,44.893L77.764,44.533L73.653,53.499L82.983,53.14L86.91,44.261L90.741,35.655L81.779,35.84L85.697,27.418L89.431,19.084L80.654,19.181L76.736,27.602L67.502,27.69L63.4,36.199L72.633,36.112Z" style="fill:rgb(54,179,126);fill-rule:nonzero;"/>
                        <path d="M69.628,62.649L65.235,71.975L74.75,71.528L84.178,70.896L88.202,61.746L92.129,52.867L82.983,53.139L78.959,62.29L69.628,62.649Z" style="fill:rgb(54,179,126);fill-rule:nonzero;"/>
                        <path d="M66.226,90.733L70.629,80.951L60.744,81.573L56.342,91.356L66.226,90.733Z" style="fill:rgb(54,179,126);fill-rule:nonzero;"/>
                        <path d="M41.492,102.481L51.658,101.498L56.342,91.356L46.176,92.338L41.492,102.481Z" style="fill:rgb(54,179,126);fill-rule:nonzero;"/>
                    </g>
                </g>
            </g>
        </g>
        <g transform="matrix(1,0,0,1,95.1483,197.285)">
            <g transform="matrix(1,0,0,1,-97,-176)">
                <clipPath id="_clip1">
                    <rect x="0" y="0" width="194" height="352"/>
                </clipPath>
                <g clip-path="url(#_clip1)">
                    <g>
                        <path d="M118.599,241.792L20.961,246.078C20.6,246.078 20.058,246.26 19.696,246.621L-12.864,279.148C-13.226,279.51 -13.407,280.051 -13.409,280.773L-12.04,311.81C-12.042,312.893 -11.142,313.794 -9.878,313.612L73.876,304.473C74.418,304.291 74.959,304.11 75.321,303.749L93.433,276.294L93.613,276.114L120.395,245.038C121.301,243.773 120.223,241.609 118.599,241.792Z" style="fill:rgb(23,43,77);fill-rule:nonzero;"/>
                        <path d="M79.171,70.281L-30.771,78.937L-59.262,122.881L-31.852,238.44L0.594,263.636L64.349,258.633L75.942,225.449L108.733,189.451L79.171,70.281Z" style="fill:white;fill-rule:nonzero;stroke:rgb(54,179,126);stroke-width:1.56px;"/>
                        <path d="M75.942,225.449L17.867,122.162L79.171,70.281L108.733,189.451L75.942,225.449Z" style="fill:rgb(197,233,218);fill-rule:nonzero;stroke:rgb(54,179,126);stroke-width:1.56px;"/>
                        <path d="M64.349,258.634L49.595,178.319L75.942,225.449L64.349,258.634Z" style="fill:white;fill-rule:nonzero;stroke:rgb(54,179,126);stroke-width:1.56px;"/>
                        <path d="M-59.262,122.882L17.867,122.162" style="fill:none;fill-rule:nonzero;stroke:rgb(54,179,126);stroke-width:1.56px;"/>
                        <path d="M32.238,109.966L11.046,111.693L4.831,122.222L27.905,139.858L32.238,109.966Z" style="fill:rgb(197,233,218);fill-rule:nonzero;stroke:rgb(54,179,126);stroke-width:1.56px;"/>
                        <g>
                            <path d="M-31.29,79.457L78.267,71.184L28.531,111.951L10.101,113.395L3.698,123.327L-59.546,123.166L-31.29,79.457Z" style="fill:rgb(54,179,126);fill-rule:nonzero;stroke:rgb(54,179,126);stroke-width:1.56px;"/>
                        </g>
                    </g>
                </g>
            </g>
        </g>
        <g transform="matrix(1,0,0,1,1327.89,75.4735)">
            <g transform="matrix(1,0,0,1,-111.5,-248)">
                <clipPath id="_clip2">
                    <rect x="0" y="0" width="223" height="496"/>
                </clipPath>
                <g clip-path="url(#_clip2)">
                    <g>
                        <path d="M100.284,489.708L281.943,460.478L382.493,444.299L326.27,385.507L61.938,428.039L70.265,455.577L100.284,489.708Z" style="fill:rgb(23,43,77);fill-rule:nonzero;"/>
                        <path d="M263.619,8.955L317.682,41.509L167.467,465.605L100.284,489.708L70.265,455.577L61.938,428.04L160.525,185.972L184.462,163.785L174.806,140.816L219.163,27.567L263.619,8.955Z" style="fill:white;fill-rule:nonzero;"/>
                        <g>
                            <path d="M152.766,228.931L160.257,207.099L181.296,203.943L188.447,182.854L167.631,185.974L174.854,165.331L154.002,168.228L146.368,189.166L138.583,210.587L116.649,213.887L108.301,236.086L85.546,239.976L76.672,263.177L99.838,258.991L122.593,255.1L130.646,232.49L152.766,228.931Z" style="fill:rgb(197,233,218);fill-rule:nonzero;"/>
                            <path d="M174.181,225.256L195.185,221.877L202.076,200.6L181.296,203.943L174.181,225.256Z" style="fill:rgb(54,179,126);fill-rule:nonzero;"/>
                            <path d="M144.866,251.059L166.727,247.312L174.181,225.257L152.767,228.932L144.866,251.059Z" style="fill:rgb(54,179,126);fill-rule:nonzero;"/>
                            <path d="M159.121,269.849L180.947,265.879L188.141,243.637L166.727,247.312L159.121,269.849Z" style="fill:rgb(23,43,77);fill-rule:nonzero;"/>
                            <path d="M136.885,274.115L144.865,251.059L122.593,255.101L114.165,278.229L105.622,302.064L128.716,297.431L151.4,293.094L159.121,269.85L136.885,274.115Z" style="fill:rgb(23,43,77);fill-rule:nonzero;"/>
                            <path d="M195.259,162.506L188.447,182.854L208.816,179.805L202.076,200.6L222.446,197.551L228.998,177.016L235.176,157L215.441,159.717L221.878,139.888L228.199,120.766L208.616,123L202.107,142.382L181.925,145.171L174.854,165.331L195.259,162.506Z" style="fill:rgb(54,179,126);fill-rule:nonzero;"/>
                            <path d="M188.586,125.307L168.368,127.872L161.261,147.809L181.925,145.172L188.586,125.307Z" style="fill:rgb(23,43,77);fill-rule:nonzero;"/>
                            <path d="M195.184,221.877L188.141,243.637L209.109,240.034L229.594,236.279L236.039,215.074L242.332,194.352L222.445,197.551L215.965,218.533L195.184,221.877Z" style="fill:rgb(54,179,126);fill-rule:nonzero;"/>
                            <path d="M195.202,284.671L202.325,261.981L180.947,265.88L173.413,288.864L195.202,284.671Z" style="fill:rgb(54,179,126);fill-rule:nonzero;"/>
                            <path d="M143.303,316.857L165.727,312.332L173.413,288.864L151.4,293.094L143.303,316.857Z" style="fill:rgb(54,179,126);fill-rule:nonzero;"/>
                            <path d="M161.261,147.809L140.373,150.482L132.667,170.974L154.002,168.228L161.261,147.809Z" style="fill:rgb(54,179,126);fill-rule:nonzero;"/>
                        </g>
                        <path d="M263.619,8.955L100.284,489.708L167.467,465.605L317.682,41.509L263.619,8.955Z" style="fill:rgb(197,233,218);fill-rule:nonzero;"/>
                        <path d="M263.619,8.955L317.682,41.509L167.467,465.605L100.284,489.708L70.265,455.577L61.938,428.04L160.525,185.972L184.462,163.785L174.806,140.816L219.163,27.567L263.619,8.955Z" style="fill:none;fill-rule:nonzero;stroke:rgb(54,179,126);stroke-width:1.57px;"/>
                        <path d="M205.393,179.899L226.324,196.011L198.393,200.506L205.393,179.899Z" style="fill:white;fill-rule:nonzero;"/>
                        <path d="M263.161,195.585L226.324,196.012L184.462,163.786" style="fill:none;fill-rule:nonzero;stroke:rgb(54,179,126);stroke-width:1.57px;"/>
                        <path d="M226.324,196.011L198.393,200.505L170.28,283.639" style="fill:none;fill-rule:nonzero;stroke:rgb(54,179,126);stroke-width:1.57px;"/>
                        <path d="M298.59,95.23L252.116,42.891L208.442,54.96" style="fill:none;fill-rule:nonzero;stroke:rgb(54,179,126);stroke-width:1.57px;"/>
                        <path d="M221.373,51.276L212.179,45.421" style="fill:none;fill-rule:nonzero;stroke:rgb(54,179,126);stroke-width:1.57px;"/>
                        <path d="M163.28,304.246L127.02,268.369L61.938,428.039L70.265,455.577L100.284,489.708L163.28,304.246Z" style="fill:white;fill-rule:nonzero;stroke:rgb(54,179,126);stroke-width:1.57px;"/>
                        <path d="M218.344,324.492L159.081,316.61L154.325,295.603L165.458,300.687L218.344,324.492Z" style="fill:rgb(23,43,77);fill-rule:nonzero;"/>
                    </g>
                </g>
            </g>
        </g>
    </g>
</svg>
