<?xml version="1.0" encoding="UTF-8" standalone="no"?>
<!DOCTYPE svg PUBLIC "-//W3C//DTD SVG 1.1//EN" "http://www.w3.org/Graphics/SVG/1.1/DTD/svg11.dtd">
<svg width="100%" height="100%" viewBox="0 0 1440 331" version="1.1" xmlns="http://www.w3.org/2000/svg" xmlns:xlink="http://www.w3.org/1999/xlink" xml:space="preserve" xmlns:serif="http://www.serif.com/" style="fill-rule:evenodd;clip-rule:evenodd;stroke-miterlimit:10;">
    <g>
        <path d="M1381.09,211.065L1480.88,245.001L1337.7,245.001L1319.35,242.998L1310.45,237.435L1340.82,211.065L1381.09,211.065Z" style="fill:rgb(23,43,77);fill-rule:nonzero;"/>
        <path d="M1367.96,148.758L1367.96,143.418C1367.96,143.418 1356.28,120.275 1354.61,120.052C1352.94,119.83 1217.22,63.309 1217.22,63.309L1268.95,164.001L1289.42,185.809L1367.96,148.758Z" style="fill:white;fill-rule:nonzero;stroke:rgb(54,179,126);stroke-width:1.36px;"/>
        <g>
            <path d="M1311.34,122.611L1294.32,123.168L1286.53,109.371L1270.18,110.15L1277.85,123.613L1261.61,124.169L1269.18,137.854L1285.53,137.52L1302.44,137.075L1310.67,151.317L1328.14,151.206L1336.81,165.892L1355.17,165.892L1346.16,150.983L1337.37,136.297L1319.68,136.742L1311.34,122.611Z" style="fill:rgb(197,233,218);fill-rule:nonzero;"/>
            <path d="M1303.22,108.703L1295.21,95.129L1278.74,96.019L1286.53,109.371L1303.22,108.703Z" style="fill:rgb(54,179,126);fill-rule:nonzero;"/>
            <path d="M1328.8,121.944L1320.35,107.925L1303.22,108.704L1311.34,122.611L1328.8,121.944Z" style="fill:rgb(54,179,126);fill-rule:nonzero;"/>
            <path d="M1337.93,107.145L1329.36,93.237L1312.12,94.127L1320.35,107.924L1337.93,107.145Z" style="fill:rgb(54,179,126);fill-rule:nonzero;"/>
            <path d="M1346.71,121.387L1328.8,121.943L1337.37,136.296L1355.61,135.962L1374.3,135.517L1365.07,120.83L1356.06,106.366L1337.93,107.145L1346.71,121.387Z" style="fill:rgb(54,179,126);fill-rule:nonzero;"/>
            <path d="M1254.27,110.817L1270.18,110.15L1262.72,96.798L1278.74,96.019L1271.18,82.779L1255.38,83.781L1239.92,84.782L1247.04,97.689L1231.69,98.467L1216.78,99.246L1223.56,112.153L1238.69,111.485L1245.81,124.725L1261.61,124.169L1254.27,110.817Z" style="fill:rgb(23,43,77);fill-rule:nonzero;"/>
            <path d="M1230.46,125.17L1237.47,138.521L1253.16,138.187L1245.81,124.725L1230.46,125.17Z" style="fill:rgb(54,179,126);fill-rule:nonzero;"/>
            <path d="M1218.11,73.21L1224.79,85.783L1239.92,84.782L1232.91,72.098L1218.11,73.21Z" style="fill:rgb(54,179,126);fill-rule:nonzero;"/>
            <path d="M1295.21,95.129L1312.12,94.128L1304,80.665L1296.1,67.425L1279.74,68.649L1263.72,69.873L1271.18,82.779L1287.42,81.778L1295.21,95.129Z" style="fill:rgb(54,179,126);fill-rule:nonzero;"/>
            <path d="M1338.48,78.44L1321.02,79.552L1329.36,93.237L1347.16,92.347L1338.48,78.44Z" style="fill:rgb(54,179,126);fill-rule:nonzero;"/>
            <path d="M1374.53,105.588L1365.4,91.347L1347.16,92.348L1356.06,106.367L1374.53,105.588Z" style="fill:rgb(54,179,126);fill-rule:nonzero;"/>
            <path d="M1253.16,138.187L1260.61,151.984L1276.85,151.761L1269.18,137.854L1253.16,138.187Z" style="fill:rgb(54,179,126);fill-rule:nonzero;"/>
        </g>
        <path d="M1337.7,145.197L1275.41,158.549L1273.85,162.665L1287.75,181.691L1337.7,145.197Z" style="fill:rgb(23,43,77);fill-rule:nonzero;"/>
        <path d="M1373.3,149.426L1434.49,0.223L1395.11,160.774L1390.88,162.221L1373.3,149.426Z" style="fill:white;fill-rule:nonzero;stroke:rgb(54,179,126);stroke-width:1.36px;"/>
        <path d="M1395.44,159.328L1377.2,139.857L1373.3,149.426L1390.88,162.221L1395.11,160.775L1395.44,159.328Z" style="fill:rgb(54,179,126);fill-rule:nonzero;"/>
        <path d="M1390.88,162.221L1378.31,151.54L1358.84,136.742L1309.56,156.547L1307.33,168.452L1319.35,185.475L1390.88,162.221Z" style="fill:white;fill-rule:nonzero;stroke:rgb(54,179,126);stroke-width:1.36px;"/>
        <path d="M1365.63,170.343L1402,158.549L1381.09,211.065L1351.05,212.956L1365.63,170.343Z" style="fill:white;fill-rule:nonzero;stroke:rgb(54,179,126);stroke-width:1.36px;"/>
        <path d="M1326.58,182.915L1319.35,185.474L1316.01,232.984L1319.35,242.997L1351.05,212.956L1365.63,170.343L1326.58,182.915Z" style="fill:white;fill-rule:nonzero;stroke:rgb(54,179,126);stroke-width:1.36px;"/>
        <path d="M1423.92,151.54L1486.77,185.475L1326.58,182.916L1423.92,151.54Z" style="fill:rgb(197,233,218);fill-rule:nonzero;stroke:rgb(54,179,126);stroke-width:1.36px;"/>
        <path d="M1319.35,185.475L1319.35,177.687L1268.95,108.37L1262.28,118.94L1310.45,237.435L1316.01,232.984L1319.35,185.475Z" style="fill:white;fill-rule:nonzero;stroke:rgb(54,179,126);stroke-width:1.36px;"/>
        <path d="M1268.95,108.369L1262.28,118.939L1239.81,139.857L1257.61,103.919L1268.95,108.369Z" style="fill:white;fill-rule:nonzero;stroke:rgb(54,179,126);stroke-width:1.36px;"/>
        <path d="M1389.1,190.816L1326.58,182.916L1391.88,184.029L1389.1,190.816Z" style="fill:rgb(23,43,77);fill-rule:nonzero;"/>
        <path d="M1333.37,180.802L1311.56,162.666L1310.67,165.781L1319.35,177.686L1319.35,185.475L1333.37,180.802Z" style="fill:rgb(23,43,77);fill-rule:nonzero;"/>
        <path d="M1305.78,226.085L1300.66,232.427L1293.98,226.085L1259.16,121.944L1262.28,118.939L1305.78,226.085Z" style="fill:rgb(197,233,218);fill-rule:nonzero;stroke:rgb(54,179,126);stroke-width:1.36px;"/>
        <g transform="matrix(1,0,0,1,118.596,268.27)">
            <g transform="matrix(1,0,0,1,-118.5,-65.5)">
                <clipPath id="_clip1">
                    <rect x="0" y="0" width="237" height="131"/>
                </clipPath>
                <g clip-path="url(#_clip1)">
                    <path d="M-3.576,130.819L224.862,127.866L136.341,103.513L146.318,82.407L202.935,74.638L188.433,71.275L149.451,69.535L-3.576,130.819Z" style="fill:rgb(23,43,77);fill-rule:nonzero;"/>
                    <path d="M122.766,23.034L115.805,23.15L57.913,1.58L123.347,38.689L134.02,29.876L122.766,23.034Z" style="fill:rgb(54,179,126);fill-rule:nonzero;"/>
                    <path d="M122.767,23.033L235.42,2.392L179.151,57.011L122.767,23.033Z" style="fill:rgb(23,43,77);fill-rule:nonzero;"/>
                    <path d="M57.913,1.58L170.334,65.477L145.042,70.115L83.088,74.638L57.913,1.58Z" style="fill:white;fill-rule:nonzero;stroke:rgb(54,179,126);stroke-width:1.44px;stroke-linejoin:round;"/>
                    <path d="M170.333,65.477L235.419,2.392L188.432,71.275L170.333,65.477Z" style="fill:white;fill-rule:nonzero;stroke:rgb(54,179,126);stroke-width:1.44px;stroke-linejoin:round;"/>
                    <path d="M123.347,38.689L152.467,14.685L155.484,17.12L146.318,51.793L123.347,38.689Z" style="fill:white;fill-rule:nonzero;stroke:rgb(54,179,126);stroke-width:1.44px;stroke-linejoin:round;"/>
                    <path d="M155.483,17.119L181.819,54.46L170.334,65.477L146.318,51.793L155.483,17.119Z" style="fill:white;fill-rule:nonzero;stroke:rgb(54,179,126);stroke-width:1.44px;stroke-linejoin:round;"/>
                    <path d="M188.433,71.275L145.042,70.115L170.334,65.477L188.433,71.275Z" style="fill:white;fill-rule:nonzero;stroke:rgb(54,179,126);stroke-width:1.44px;stroke-linejoin:round;"/>
                    <path d="M38.538,53.416L29.257,55.039L-52.42,38.572L42.715,74.058L55.128,60.026L38.538,53.416Z" style="fill:white;fill-rule:nonzero;stroke:rgb(54,179,126);stroke-width:1.44px;stroke-linejoin:round;"/>
                    <path d="M38.538,53.416L184.256,2.392L120.795,86.466L38.538,53.416Z" style="fill:rgb(197,233,218);fill-rule:nonzero;stroke:rgb(54,179,126);stroke-width:1.44px;"/>
                    <path d="M-52.42,38.572L111.049,99.454L78.216,111.05L-3.46,129.953L-52.42,38.572Z" style="fill:white;fill-rule:nonzero;stroke:rgb(54,179,126);stroke-width:1.44px;stroke-linejoin:round;"/>
                    <path d="M111.049,99.454L184.256,2.392L136.341,103.513L111.049,99.454Z" style="fill:white;fill-rule:nonzero;stroke:rgb(54,179,126);stroke-width:1.44px;stroke-linejoin:round;"/>
                    <path d="M42.714,74.058L76.476,36.138L81,38.573L76.128,86.467L42.714,74.058Z" style="fill:rgb(54,179,126);fill-rule:nonzero;"/>
                    <path d="M81,38.572L123.811,82.523L111.049,99.454L76.127,86.466L81,38.572Z" style="fill:white;fill-rule:nonzero;stroke:rgb(54,179,126);stroke-width:1.44px;stroke-linejoin:round;"/>
                    <path d="M136.341,103.513L78.216,111.051L111.049,99.454L136.341,103.513Z" style="fill:white;fill-rule:nonzero;stroke:rgb(54,179,126);stroke-width:1.44px;stroke-linejoin:round;"/>
                    <g>
                        <path d="M45.731,101.889L27.98,102.469L19.743,88.205L2.688,88.901L10.694,103.049L-6.129,103.512L1.644,117.776L18.815,117.428L36.334,116.964L44.919,131.924L63.25,131.692L72.299,146.999L91.326,146.999L82.045,131.46L72.879,116.269L54.316,116.617L45.731,101.889Z" style="fill:rgb(197,233,218);fill-rule:nonzero;"/>
                        <path d="M37.146,87.394L28.793,73.246L11.622,74.174L19.743,88.206L37.146,87.394Z" style="fill:rgb(197,233,218);fill-rule:nonzero;"/>
                        <path d="M63.83,101.31L55.129,86.582L37.146,87.394L45.731,101.889L63.83,101.31Z" style="fill:rgb(54,179,126);fill-rule:nonzero;"/>
                        <path d="M73.459,85.886L64.526,71.274L46.427,72.318L55.129,86.582L73.459,85.886Z" style="fill:rgb(23,43,77);fill-rule:nonzero;"/>
                        <path d="M82.509,100.614L63.83,101.309L72.879,116.269L91.79,115.805L111.281,115.341L101.652,100.034L92.254,85.074L73.46,85.886L82.509,100.614Z" style="fill:rgb(54,179,126);fill-rule:nonzero;"/>
                        <path d="M-13.902,89.597L2.688,88.901L-5.085,75.102L11.622,74.174L3.733,60.374L-12.742,61.418L-28.868,62.461L-21.443,75.913L-37.338,76.841L-53,77.653L-45.923,90.989L-30.029,90.293L-22.603,104.093L-6.129,103.513L-13.902,89.597Z" style="fill:rgb(54,179,126);fill-rule:nonzero;"/>
                        <path d="M28.793,73.246L46.427,72.318L37.958,58.286L29.721,44.486L12.666,45.762L-4.041,46.922L3.733,60.374L20.671,59.33L28.793,73.246Z" style="fill:rgb(54,179,126);fill-rule:nonzero;"/>
                        <path d="M74.04,55.967L55.825,57.126L64.526,71.274L83.089,70.347L74.04,55.967Z" style="fill:rgb(54,179,126);fill-rule:nonzero;"/>
                        <path d="M111.629,84.146L102,69.303L83.089,70.346L92.254,85.074L111.629,84.146Z" style="fill:rgb(54,179,126);fill-rule:nonzero;"/>
                        <path d="M-15.062,118.124L-7.289,132.504L9.65,132.272L1.645,117.776L-15.062,118.124Z" style="fill:rgb(54,179,126);fill-rule:nonzero;"/>
                    </g>
                </g>
            </g>
        </g>
    </g>
</svg>
